<svg width="130" height="130" fill="none" xmlns="http://www.w3.org/2000/svg">
  <rect width="130" height="130" rx="58" fill="#FAC200" />
  <path
    d="M44.54 62.688 32 98l35.311-12.507M38.6 35.299h.032M98.002 51.8h.032M74.901 31.999h.032M98.002 91.401h.032M98.002 31.999l-7.392 2.475A9.57 9.57 0 0 0 84.14 44.77c.33 2.838-1.88 5.38-4.785 5.38h-1.254c-2.838 0-5.28 1.98-5.808 4.752l-.693 3.498M98.002 68.3l-2.706-1.088c-2.838-1.123-6.006.66-6.534 3.663a4.786 4.786 0 0 1-4.72 4.026h-2.54M61.7 31.999l1.09 2.706c1.122 2.838-.66 6.006-3.663 6.534-2.31.33-4.026 2.376-4.026 4.72v2.54"
    stroke="#fff" stroke-width="6.6" stroke-linecap="round" stroke-linejoin="round" />
  <path
    d="M61.701 68.298c6.37 6.37 9.34 13.761 6.6 16.5-2.739 2.74-10.131-.23-16.5-6.6-6.37-6.369-9.34-13.761-6.6-16.5 2.739-2.74 10.13.23 16.5 6.6Z"
    stroke="#fff" stroke-width="6.6" stroke-linecap="round" stroke-linejoin="round" />
</svg>